<svg width="44" height="43" viewBox="0 0 44 43" fill="none" xmlns="http://www.w3.org/2000/svg">
<g id="Icon / Instagram">
<path id="Oval" fill-rule="evenodd" clip-rule="evenodd" d="M21.605 42.938C33.5081 42.938 43.1575 33.3811 43.1575 21.5921C43.1575 9.803 33.5081 0.246094 21.605 0.246094C9.70187 0.246094 0.0524902 9.803 0.0524902 21.5921C0.0524902 33.3811 9.70187 42.938 21.605 42.938Z" fill="#2F2F2F"/>
<g id="Icon">
<path id="Shape" fill-rule="evenodd" clip-rule="evenodd" d="M15.7713 8.78467H27.2958C31.2098 8.78467 34.394 11.9383 34.3939 15.8145V27.2286C34.3939 31.1048 31.2098 34.2585 27.2958 34.2585H15.7713C11.8576 34.2585 8.67358 31.105 8.67358 27.2286V15.8145C8.67358 11.9383 11.8576 8.78467 15.7713 8.78467ZM27.2959 31.9984C29.9514 31.9984 32.1119 29.8587 32.1119 27.2287H32.1117V15.8145C32.1117 13.1846 29.9512 11.0449 27.2957 11.0449H15.7712C13.1158 11.0449 10.9555 13.1846 10.9555 15.8145V27.2287C10.9555 29.8587 13.1158 31.9985 15.7712 31.9984H27.2959Z" fill="#FF8D24"/>
<path id="Shape_2" fill-rule="evenodd" clip-rule="evenodd" d="M14.9062 21.522C14.9062 17.9025 17.8793 14.958 21.5337 14.958C25.1882 14.958 28.1612 17.9025 28.1612 21.522C28.1612 25.1412 25.1882 28.0856 21.5337 28.0856C17.8793 28.0856 14.9062 25.1412 14.9062 21.522ZM17.188 21.5218C17.188 23.8948 19.1374 25.8253 21.5334 25.8253C23.9294 25.8253 25.8789 23.8948 25.8789 21.5218C25.8789 19.1487 23.9295 17.218 21.5334 17.218C19.1373 17.218 17.188 19.1487 17.188 21.5218Z" fill="#FF8D24"/>
<path id="Shape_3" d="M28.4391 13.0415C27.9994 13.0415 27.5675 13.2178 27.257 13.5267C26.945 13.8341 26.7656 14.262 26.7656 14.699C26.7656 15.1346 26.9451 15.5623 27.257 15.8712C27.5674 16.1786 27.9994 16.3564 28.4391 16.3564C28.8803 16.3564 29.3108 16.1786 29.6227 15.8712C29.9346 15.5623 30.1126 15.1344 30.1126 14.699C30.1126 14.262 29.9346 13.8341 29.6227 13.5267C29.3124 13.2178 28.8803 13.0415 28.4391 13.0415Z" fill="#FF8D24"/>
</g>
</g>
</svg>
